<svg version="1.1" xmlns="http://www.w3.org/2000/svg" xmlns:xlink="http://www.w3.org/1999/xlink">
	<defs>
		<symbol id="camera-outline" viewBox="0 0 72 72">
<path d="M36.4501 26.1052C34.0517 26.1032 31.7066 26.8157 29.7117 28.1525C27.7169 29.4894 26.1619 31.3904 25.2436 33.615C24.3253 35.8396 24.0851 38.2877 24.5532 40.6495C25.0213 43.0112 26.1769 45.1805 27.8735 46.8825C29.5701 48.5846 31.7315 49.743 34.0842 50.2111C36.4368 50.6792 38.8749 50.4359 41.0897 49.5121C43.3046 48.5882 45.1967 47.0254 46.5265 45.0213C47.8563 43.0173 48.564 40.6622 48.5601 38.2541C48.5521 35.0327 47.2734 31.9457 45.0038 29.6688C42.7341 27.3918 39.6585 26.1105 36.4501 26.1052ZM36.4501 46.919C34.7448 46.921 33.0772 46.4151 31.6583 45.4653C30.2395 44.5155 29.1331 43.1645 28.4791 41.5832C27.8251 40.0019 27.653 38.2614 27.9845 36.5818C28.3159 34.9023 29.1361 33.3592 30.3413 32.1478C31.5464 30.9364 33.0823 30.1111 34.7547 29.7763C36.4271 29.4416 38.1608 29.6124 39.7365 30.2671C41.3122 30.9219 42.659 32.0312 43.6066 33.4547C44.5543 34.8782 45.0601 36.5519 45.0601 38.2641C45.0548 40.5553 44.146 42.751 42.5324 44.3711C40.9189 45.9912 38.732 46.9037 36.4501 46.909V46.919Z"/>
<path d="M53.08 26.6072C52.722 26.6072 52.3721 26.7138 52.0744 26.9135C51.7768 27.1131 51.5448 27.397 51.4078 27.729C51.2708 28.0611 51.235 28.4265 51.3048 28.779C51.3746 29.1316 51.547 29.4554 51.8002 29.7095C52.0533 29.9637 52.3758 30.1368 52.7269 30.2069C53.078 30.277 53.4419 30.241 53.7727 30.1035C54.1034 29.9659 54.3861 29.733 54.585 29.4341C54.7839 29.1353 54.89 28.7839 54.89 28.4245C54.89 27.9425 54.6993 27.4803 54.3599 27.1395C54.0204 26.7986 53.5601 26.6072 53.08 26.6072Z"/>
<path d="M57.86 19.7596H48.33C48.2863 19.7601 48.2433 19.7481 48.2061 19.725C48.1689 19.7019 48.139 19.6686 48.12 19.6291L47 17.5105C46.6731 16.9256 46.1969 16.4387 45.6205 16.0999C45.044 15.7611 44.388 15.5826 43.72 15.5828H29.55C28.881 15.5836 28.2244 15.7636 27.6478 16.1042C27.0712 16.4449 26.5956 16.9338 26.27 17.5206L25.1 19.6291C25.0784 19.6687 25.0466 19.7017 25.0079 19.7247C24.9692 19.7477 24.925 19.7597 24.88 19.7596H14.14C13.1455 19.7596 12.1916 20.1563 11.4884 20.8624C10.7851 21.5685 10.39 22.5262 10.39 23.5248V52.642C10.39 53.6406 10.7851 54.5983 11.4884 55.3044C12.1916 56.0105 13.1455 56.4072 14.14 56.4072H57.86C58.8546 56.4072 59.8084 56.0105 60.5117 55.3044C61.2149 54.5983 61.61 53.6406 61.61 52.642V23.5248C61.61 23.0303 61.513 22.5407 61.3246 22.0839C61.1361 21.6271 60.8599 21.212 60.5117 20.8624C60.1634 20.5127 59.75 20.2354 59.2951 20.0462C58.8401 19.857 58.3525 19.7596 57.86 19.7596ZM58.11 52.6521C58.11 52.7186 58.0837 52.7825 58.0368 52.8296C57.9899 52.8766 57.9263 52.9031 57.86 52.9031H14.14C14.0737 52.9031 14.0101 52.8766 13.9632 52.8296C13.9164 52.7825 13.89 52.7186 13.89 52.6521V23.5348C13.89 23.4682 13.9164 23.4044 13.9632 23.3573C14.0101 23.3102 14.0737 23.2838 14.14 23.2838H24.88C25.549 23.283 26.2056 23.1029 26.7822 22.7623C27.3588 22.4217 27.8344 21.9327 28.16 21.346L29.33 19.2274C29.3543 19.191 29.3869 19.161 29.4252 19.14C29.4636 19.119 29.5064 19.1077 29.55 19.107H43.67C43.7137 19.1077 43.7565 19.119 43.7948 19.14C43.8331 19.161 43.8658 19.191 43.89 19.2274L45.06 21.346C45.3832 21.9327 45.8568 22.4218 46.4319 22.7625C47.0069 23.1033 47.6623 23.2833 48.33 23.2838H57.86C57.9263 23.2838 57.9899 23.3102 58.0368 23.3573C58.0837 23.4044 58.11 23.4682 58.11 23.5348V52.6521Z"/>
</symbol>
		<symbol id="camera-solid" viewBox="0 0 72 72">
<path d="M36.45 29.6336C34.7447 29.6316 33.0771 30.1352 31.6583 31.0806C30.2394 32.0261 29.133 33.3709 28.479 34.9449C27.8251 36.519 27.6529 38.2515 27.9844 39.9234C28.3159 41.5952 29.1361 43.1312 30.3412 44.3371C31.5463 45.543 33.0822 46.3645 34.7546 46.6977C36.427 47.0309 38.1607 46.8609 39.7364 46.2091C41.3121 45.5574 42.6589 44.4531 43.6066 43.0362C44.5542 41.6192 45.06 39.9531 45.06 38.2488C45.0574 35.9664 44.1497 33.7781 42.5359 32.1633C40.922 30.5485 38.7336 29.6388 36.45 29.6336V29.6336Z"/>
<path d="M57.86 19.839H48.34C48.2948 19.8402 48.2502 19.8287 48.2113 19.8057C48.1723 19.7827 48.1407 19.7492 48.12 19.7091L47 17.6002C46.6744 17.0161 46.1988 16.5295 45.6222 16.1904C45.0456 15.8513 44.389 15.6721 43.72 15.6713H29.55C28.881 15.6721 28.2244 15.8513 27.6478 16.1904C27.0712 16.5295 26.5956 17.0161 26.27 17.6002L25.1 19.7091C25.0784 19.7485 25.0466 19.7814 25.0079 19.8042C24.9691 19.8271 24.925 19.8391 24.88 19.839H14.14C13.1454 19.839 12.1916 20.2338 11.4883 20.9367C10.7851 21.6396 10.39 22.5929 10.39 23.5869V52.5708C10.39 53.5648 10.7851 54.5181 11.4883 55.221C12.1916 55.9238 13.1454 56.3187 14.14 56.3187H57.86C58.8546 56.3187 59.8084 55.9238 60.5117 55.221C61.2149 54.5181 61.61 53.5648 61.61 52.5708V23.5869C61.61 22.5929 61.2149 21.6396 60.5117 20.9367C59.8084 20.2338 58.8546 19.839 57.86 19.839V19.839ZM36.45 50.362C34.0525 50.364 31.7082 49.6552 29.7138 48.3254C27.7193 46.9956 26.1643 45.1045 25.2455 42.8912C24.3266 40.678 24.0851 38.2421 24.5517 35.8917C25.0182 33.5413 26.1717 31.382 27.8663 29.6869C29.5609 27.9918 31.7205 26.8372 34.0718 26.369C36.4231 25.9008 38.8606 26.1401 41.0758 27.0566C43.291 27.9731 45.1845 29.5257 46.5167 31.5179C47.8489 33.5102 48.56 35.8525 48.56 38.2488C48.5547 41.458 47.2775 44.5345 45.0078 46.8048C42.7382 49.075 39.6611 50.3541 36.45 50.362V50.362ZM53.08 30.2732C52.722 30.2732 52.3721 30.1671 52.0744 29.9683C51.7768 29.7695 51.5448 29.487 51.4078 29.1565C51.2708 28.8259 51.2349 28.4622 51.3048 28.1113C51.3746 27.7604 51.547 27.438 51.8001 27.185C52.0533 26.932 52.3758 26.7598 52.7269 26.69C53.078 26.6202 53.4419 26.656 53.7727 26.7929C54.1034 26.9298 54.3861 27.1617 54.585 27.4592C54.7838 27.7567 54.89 28.1064 54.89 28.4642C54.89 28.944 54.6993 29.4041 54.3599 29.7433C54.0204 30.0826 53.56 30.2732 53.08 30.2732V30.2732Z"/>
</symbol>
		<symbol id="check-ball-outline" viewBox="0 0 72 72">
<path d="M36.02 10.13C30.8997 10.1261 25.8933 11.6399 21.634 14.4802C17.3747 17.3204 14.0539 21.3594 12.0917 26.0861C10.1295 30.8129 9.61404 36.0151 10.6105 41.0347C11.607 46.0543 14.0707 50.6658 17.6899 54.2858C21.3091 57.9058 25.9212 60.3716 30.9428 61.3715C35.9645 62.3713 41.17 61.8601 45.9009 59.9027C50.6318 57.9452 54.6756 54.6294 57.5207 50.3747C60.3658 46.12 61.8844 41.1175 61.8844 36C61.8738 29.1456 59.1461 22.5746 54.2984 17.7259C49.4508 12.8772 42.8782 10.1459 36.02 10.13ZM36.02 58.37C31.5923 58.374 27.2629 57.0654 23.5795 54.6097C19.8961 52.1541 17.0242 48.6617 15.3271 44.5745C13.6299 40.4873 13.1838 35.9888 14.0452 31.6481C14.9066 27.3074 17.0367 23.3196 20.1661 20.1891C23.2956 17.0586 27.2837 14.9261 31.626 14.0613C35.9683 13.1965 40.4697 13.6384 44.5608 15.3309C48.6518 17.0235 52.1486 19.8907 54.6089 23.5698C57.0692 27.249 58.3824 31.5748 58.3824 36C58.3745 41.927 56.0166 47.6093 51.8251 51.8022C47.6336 55.9951 41.9503 58.3568 36.02 58.37Z"/>
<path d="M46.7459 29L32.0678 42.84C32.004 42.9035 31.9176 42.9392 31.8276 42.9392C31.7376 42.9392 31.6513 42.9035 31.5875 42.84L25.0739 36.84C24.7329 36.5244 24.2804 36.3571 23.816 36.3749C23.3516 36.3927 22.9133 36.5942 22.5975 36.935C22.2817 37.2758 22.1143 37.728 22.1322 38.1922C22.15 38.6563 22.3516 39.0944 22.6926 39.41L29.2062 45.41C29.922 46.0728 30.8618 46.441 31.8376 46.441C32.8134 46.441 33.7533 46.0728 34.4691 45.41L49.1472 31.58C49.4896 31.2617 49.6914 30.8206 49.7083 30.3536C49.7251 29.8867 49.5557 29.4321 49.2373 29.09C48.9189 28.7479 48.4775 28.5462 48.0103 28.5293C47.543 28.5124 47.0882 28.6817 46.7459 29Z"/>
</symbol>
		<symbol id="check-ball-solid" viewBox="0 0 72 72">
<path d="M36.2802 11.33C31.3986 11.332 26.6273 12.7805 22.5694 15.4925C18.5115 18.2045 15.3492 22.0581 13.4825 26.5661C11.6158 31.0742 11.1284 36.0342 12.082 40.819C13.0355 45.6039 15.3872 49.9987 18.8397 53.4479C22.2922 56.897 26.6904 59.2456 31.4783 60.1967C36.2662 61.1478 41.2288 60.6587 45.7385 58.7911C50.2483 56.9236 54.1028 53.7616 56.8146 49.7049C59.5265 45.6481 60.9739 40.8788 60.9739 36C60.9659 29.4578 58.3614 23.186 53.7319 18.5609C49.1023 13.9358 42.826 11.3353 36.2802 11.33ZM48.8371 31.87L34.8894 45C34.1912 45.6423 33.2769 45.9988 32.328 45.9988C31.379 45.9988 30.4647 45.6423 29.7665 45L23.5831 39.26C23.4156 39.1004 23.2811 38.9095 23.1875 38.698C23.0938 38.4865 23.0427 38.2586 23.0371 38.0274C23.0315 37.7962 23.0716 37.5662 23.155 37.3504C23.2383 37.1347 23.3634 36.9374 23.5231 36.77C23.6827 36.6026 23.8738 36.4682 24.0854 36.3746C24.297 36.2809 24.525 36.2299 24.7563 36.2243C24.9877 36.2187 25.2179 36.2588 25.4337 36.3421C25.6496 36.4254 25.8469 36.5504 26.0145 36.71L32.1979 42.44C32.2442 42.4829 32.3049 42.5067 32.368 42.5067C32.4311 42.5067 32.4918 42.4829 32.5381 42.44L46.4358 29.32C46.6033 29.1624 46.8003 29.0394 47.0154 28.9578C47.2305 28.8763 47.4596 28.8379 47.6895 28.8449C47.9195 28.8519 48.1458 28.904 48.3556 28.9984C48.5654 29.0928 48.7545 29.2276 48.9122 29.395C49.0699 29.5624 49.193 29.7593 49.2746 29.9743C49.3561 30.1893 49.3945 30.4182 49.3875 30.648C49.3806 30.8779 49.3284 31.1041 49.2339 31.3137C49.1395 31.5234 49.0047 31.7124 48.8371 31.87Z"/>
</symbol>
		<symbol id="close-outline" viewBox="0 0 72 72">
<path d="M38.4699 35.63L58.63 15.48C58.7928 15.3172 58.922 15.1239 59.0101 14.9111C59.0982 14.6983 59.1436 14.4703 59.1436 14.24C59.1436 14.0097 59.0982 13.7817 59.0101 13.5689C58.922 13.3562 58.7928 13.1629 58.63 13C58.4671 12.8372 58.2738 12.708 58.061 12.6199C57.8483 12.5317 57.6202 12.4864 57.3899 12.4864C57.1597 12.4864 56.9316 12.5317 56.7189 12.6199C56.5061 12.708 56.3128 12.8372 56.1499 13L35.9999 33.16L15.8499 13C15.5211 12.6711 15.075 12.4864 14.6099 12.4864C14.1449 12.4864 13.6988 12.6711 13.3699 13C13.0411 13.3289 12.8563 13.7749 12.8563 14.24C12.8563 14.7051 13.0411 15.1511 13.3699 15.48L33.5299 35.63L13.3699 55.78C13.0411 56.1089 12.8563 56.5549 12.8563 57.02C12.8563 57.4851 13.0411 57.9311 13.3699 58.26C13.6988 58.5889 14.1449 58.7736 14.6099 58.7736C15.075 58.7736 15.5211 58.5889 15.8499 58.26L35.9999 38.1L56.1499 58.26C56.3128 58.4229 56.5061 58.552 56.7189 58.6402C56.9316 58.7283 57.1597 58.7736 57.3899 58.7736C57.6202 58.7736 57.8483 58.7283 58.061 58.6402C58.2738 58.552 58.4671 58.4229 58.63 58.26C58.7928 58.0972 58.922 57.9039 59.0101 57.6911C59.0982 57.4783 59.1436 57.2503 59.1436 57.02C59.1436 56.7897 59.0982 56.5617 59.0101 56.3489C58.922 56.1362 58.7928 55.9429 58.63 55.78L38.4699 35.63Z"/>
</symbol>
		<symbol id="edit-outline" viewBox="0 0 72 72">
<path d="M17.44 54.71L23.57 55.24H23.9C24.8851 55.2424 25.8309 54.854 26.53 54.16C30.66 50.08 51.53 29.5 57.27 23.9C57.6251 23.5561 57.9072 23.1443 58.0997 22.689C58.2921 22.2337 58.3908 21.7443 58.39 21.25C58.3922 20.7543 58.2961 20.2631 58.1073 19.8048C57.9185 19.3466 57.6407 18.9302 57.29 18.58L50.14 11.43C49.4247 10.7334 48.4684 10.3395 47.47 10.33C46.9756 10.3285 46.486 10.427 46.0307 10.6195C45.5753 10.8119 45.1635 11.0944 44.82 11.45C39.22 17.14 18.66 38.04 14.56 42.19C14.1735 42.5816 13.8775 43.0532 13.6926 43.5714C13.5078 44.0897 13.4386 44.6421 13.49 45.19L14 51.3C14.0796 52.1826 14.4684 53.0088 15.0977 53.6327C15.7271 54.2566 16.5567 54.6381 17.44 54.71ZM47.31 13.92C47.31 13.87 47.39 13.83 47.49 13.85C47.5215 13.8499 47.5528 13.856 47.582 13.868C47.6111 13.8801 47.6376 13.8977 47.66 13.92L54.81 21.08C54.8364 21.1017 54.8574 21.1293 54.8713 21.1605C54.8851 21.1918 54.8916 21.2258 54.89 21.26C54.8906 21.2916 54.8848 21.323 54.8727 21.3523C54.8607 21.3815 54.8427 21.408 54.82 21.43L51.26 24.92L43.81 17.48L47.31 13.92ZM17.05 44.67L41.36 20L48.77 27.41C40.29 35.75 27.24 48.59 24.07 51.72C24.0449 51.7442 24.0151 51.763 23.9824 51.7751C23.9497 51.7871 23.9148 51.7922 23.88 51.79L17.75 51.25C17.6912 51.2435 17.6364 51.2172 17.5946 51.1754C17.5528 51.1336 17.5265 51.0788 17.52 51.02L17 44.86C16.9938 44.8266 16.995 44.7922 17.0037 44.7594C17.0123 44.7265 17.0281 44.696 17.05 44.67Z"/>
<path d="M57.48 58.15H14.48C14.0159 58.15 13.5707 58.3344 13.2425 58.6626C12.9144 58.9908 12.73 59.4359 12.73 59.9C12.73 60.3642 12.9144 60.8093 13.2425 61.1375C13.5707 61.4656 14.0159 61.65 14.48 61.65H57.48C57.9441 61.65 58.3892 61.4656 58.7174 61.1375C59.0456 60.8093 59.23 60.3642 59.23 59.9C59.23 59.4359 59.0456 58.9908 58.7174 58.6626C58.3892 58.3344 57.9441 58.15 57.48 58.15Z"/>
</symbol>
		<symbol id="edit-solid" viewBox="0 0 72 72">
<path d="M17.5898 51.91L24.2235 52.49H24.3735C24.8354 52.4956 25.281 52.3196 25.6142 52C26.4047 51.21 37.4208 40.37 45.2851 32.64C45.4727 32.4541 45.6216 32.2329 45.7232 31.9892C45.8248 31.7454 45.8771 31.484 45.8771 31.22C45.8771 30.956 45.8248 30.6946 45.7232 30.4509C45.6216 30.2071 45.4727 29.9859 45.2851 29.8L37.3607 21.88C37.1747 21.6925 36.9534 21.5438 36.7095 21.4422C36.4657 21.3407 36.2041 21.2884 35.94 21.2884C35.6758 21.2884 35.4142 21.3407 35.1704 21.4422C34.9265 21.5438 34.7052 21.6925 34.5192 21.88C26.8249 29.71 16.0089 40.66 15.1584 41.54C14.978 41.7211 14.839 41.9392 14.7509 42.1791C14.6628 42.4191 14.6277 42.6752 14.6481 42.93L15.2385 49.55C15.2902 50.1569 15.5542 50.7262 15.9842 51.1578C16.4143 51.5894 16.9827 51.8558 17.5898 51.91V51.91Z"/>
<path d="M47.8066 27.36C48.1815 27.7325 48.6887 27.9416 49.2173 27.9416C49.746 27.9416 50.2532 27.7325 50.6281 27.36C52.169 25.84 53.1395 24.89 53.1895 24.85C53.3532 24.6866 53.4831 24.4925 53.5716 24.2789C53.6602 24.0652 53.7058 23.8362 53.7058 23.605C53.7058 23.3738 53.6602 23.1448 53.5716 22.9312C53.4831 22.7175 53.3532 22.5235 53.1895 22.36L44.7949 14C44.4648 13.6731 44.0189 13.4897 43.5542 13.49V13.49C43.0883 13.4935 42.6425 13.6803 42.3135 14.01L39.8021 16.56C39.4294 16.9347 39.2202 17.4416 39.2202 17.97C39.2202 18.4984 39.4294 19.0053 39.8021 19.38L47.8066 27.36Z"/>
<path d="M55.881 55H16.1089C15.6446 55 15.1992 55.1844 14.8708 55.5126C14.5424 55.8408 14.358 56.2859 14.358 56.75C14.358 57.2141 14.5424 57.6592 14.8708 57.9874C15.1992 58.3156 15.6446 58.5 16.1089 58.5H55.881C56.3454 58.5 56.7908 58.3156 57.1192 57.9874C57.4475 57.6592 57.632 57.2141 57.632 56.75C57.632 56.2859 57.4475 55.8408 57.1192 55.5126C56.7908 55.1844 56.3454 55 55.881 55V55Z"/>
</symbol>
		<symbol id="search-outline" viewBox="0 0 72 72">
<path d="M31.25 50.84C27.2525 50.84 23.3447 49.6544 20.0209 47.4333C16.6972 45.2122 14.1068 42.0552 12.5775 38.3617C11.0481 34.6682 10.6485 30.6042 11.4291 26.6835C12.2097 22.7629 14.1355 19.1618 16.963 16.3358C19.7904 13.5098 23.3924 11.5858 27.3134 10.8071C31.2344 10.0284 35.2983 10.4301 38.991 11.9613C42.6837 13.4924 45.8394 16.0844 48.0589 19.4092C50.2784 22.734 51.462 26.6424 51.46 30.64C51.4521 35.9967 49.32 41.1315 45.5313 44.9183C41.7426 48.7051 36.6067 50.8347 31.25 50.84ZM31.25 13.93C27.9468 13.9379 24.7201 14.9246 21.9774 16.7656C19.2347 18.6065 17.0992 21.219 15.8406 24.273C14.582 27.3271 14.2567 30.6856 14.906 33.9244C15.5553 37.1632 17.1499 40.1369 19.4884 42.4698C21.8269 44.8027 24.8044 46.3903 28.0448 47.0318C31.2851 47.6733 34.6429 47.3401 37.6939 46.0742C40.7449 44.8082 43.3523 42.6665 45.1867 39.9194C47.021 37.1723 48 33.9432 48 30.64C47.9974 28.443 47.5621 26.268 46.7189 24.2392C45.8757 22.2104 44.6412 20.3676 43.0858 18.816C41.5304 17.2643 39.6846 16.0342 37.6539 15.1958C35.6231 14.3575 33.4471 13.9274 31.25 13.93Z"/>
<path d="M59.21 61.57C58.7558 61.5635 58.3219 61.3806 58 61.06L42.44 45.52C42.2607 45.3619 42.1157 45.1688 42.0139 44.9524C41.9122 44.7361 41.8558 44.5013 41.8483 44.2623C41.8408 44.0234 41.8823 43.7854 41.9703 43.5632C42.0583 43.3409 42.1909 43.139 42.36 42.97C42.529 42.8009 42.7309 42.6683 42.9532 42.5803C43.1754 42.4923 43.4134 42.4508 43.6523 42.4583C43.8913 42.4658 44.1261 42.5221 44.3425 42.6239C44.5588 42.7257 44.7519 42.8707 44.91 43.05L60.44 58.58C60.6887 58.8236 60.859 59.1359 60.9293 59.4768C60.9995 59.8177 60.9665 60.1718 60.8345 60.4939C60.7024 60.816 60.4773 61.0913 60.188 61.2848C59.8986 61.4783 59.5581 61.5811 59.21 61.58V61.57Z"/>
</symbol>
		<symbol id="trash-outline" viewBox="0 0 72 72">
<path d="M58.3187 18.1538H47.1769V14.1196C47.1716 13.1361 46.779 12.1947 46.085 11.5012C45.3909 10.8076 44.4519 10.4183 43.473 10.4183H28.4165C27.9314 10.417 27.4508 10.5116 27.0022 10.6969C26.5535 10.8822 26.1456 11.1545 25.8016 11.4982C25.4577 11.8419 25.1845 12.2503 24.9977 12.7001C24.8108 13.1499 24.714 13.6323 24.7126 14.1196V18.1538H13.6813C13.2154 18.1538 12.7686 18.3398 12.4392 18.6708C12.1098 19.0018 11.9247 19.4507 11.9247 19.9188C11.9247 20.3869 12.1098 20.8358 12.4392 21.1668C12.7686 21.4978 13.2154 21.6837 13.6813 21.6837H16.9636C16.9109 21.8501 16.8838 22.0235 16.8833 22.1981V57.6081C16.8833 58.678 17.3063 59.7041 18.0593 60.4607C18.8122 61.2172 19.8335 61.6423 20.8983 61.6423H51.0815C52.1464 61.6423 53.1676 61.2172 53.9206 60.4607C54.6736 59.7041 55.0966 58.678 55.0966 57.6081V22.188C55.0926 22.0129 55.0622 21.8395 55.0062 21.6736H58.3187C58.7845 21.6736 59.2313 21.4877 59.5607 21.1567C59.8902 20.8257 60.0752 20.3768 60.0752 19.9087C60.0752 19.4406 59.8902 18.9917 59.5607 18.6607C59.2313 18.3297 58.7845 18.1437 58.3187 18.1437V18.1538ZM28.2961 14.1196C28.2974 14.0958 28.3033 14.0724 28.3136 14.0509C28.3239 14.0294 28.3383 14.0101 28.356 13.9941C28.3737 13.9782 28.3944 13.966 28.4168 13.9581C28.4393 13.9502 28.4631 13.9468 28.4868 13.9482H43.5432C43.5905 13.9479 43.6362 13.9653 43.6715 13.997C43.7067 14.0287 43.729 14.0724 43.734 14.1196V18.1538H28.2961V14.1196ZM51.6035 22.188V57.6081C51.6035 57.6765 51.5899 57.7442 51.5636 57.8073C51.5372 57.8704 51.4986 57.9275 51.45 57.9754C51.4014 58.0233 51.3438 58.061 51.2805 58.0862C51.2172 58.1115 51.1496 58.1238 51.0815 58.1225H20.9686C20.9005 58.1238 20.8329 58.1115 20.7696 58.0862C20.7063 58.061 20.6487 58.0233 20.6001 57.9754C20.5515 57.9275 20.5129 57.8704 20.4865 57.8073C20.4602 57.7442 20.4466 57.6765 20.4466 57.6081V22.188C20.4427 22.0129 20.4122 21.8395 20.3563 21.6736H51.6838C51.6311 21.84 51.604 22.0134 51.6035 22.188Z"/>
<path d="M35.995 52.8377C36.4609 52.8377 36.9077 52.6517 37.2371 52.3207C37.5665 51.9897 37.7516 51.5408 37.7516 51.0727V28.9453C37.7516 28.4772 37.5665 28.0282 37.2371 27.6972C36.9077 27.3662 36.4609 27.1803 35.995 27.1803C35.5291 27.1803 35.0823 27.3662 34.7529 27.6972C34.4235 28.0282 34.2384 28.4772 34.2384 28.9453V51.0727C34.241 51.54 34.427 51.9874 34.7558 52.3178C35.0847 52.6482 35.5299 52.835 35.995 52.8377Z"/>
<path d="M44.8883 51.0324C45.3542 51.0324 45.801 50.8464 46.1304 50.5154C46.4598 50.1844 46.6449 49.7355 46.6449 49.2674V30.7505C46.6449 30.2825 46.4598 29.8335 46.1304 29.5025C45.801 29.1715 45.3542 28.9856 44.8883 28.9856C44.4224 28.9856 43.9756 29.1715 43.6462 29.5025C43.3168 29.8335 43.1317 30.2825 43.1317 30.7505V49.2674C43.1317 49.7355 43.3168 50.1844 43.6462 50.5154C43.9756 50.8464 44.4224 51.0324 44.8883 51.0324Z"/>
<path d="M27.1017 51.0324C27.5667 51.0297 28.012 50.8429 28.3409 50.5125C28.6697 50.1821 28.8556 49.7347 28.8583 49.2674V30.7505C28.8583 30.2825 28.6732 29.8335 28.3438 29.5025C28.0143 29.1715 27.5676 28.9856 27.1017 28.9856C26.6358 28.9856 26.189 29.1715 25.8596 29.5025C25.5302 29.8335 25.3451 30.2825 25.3451 30.7505V49.2674C25.3451 49.7355 25.5302 50.1844 25.8596 50.5154C26.189 50.8464 26.6358 51.0324 27.1017 51.0324Z"/>
</symbol>
		<symbol id="trash-solid" viewBox="0 0 72 72">
<path d="M55.5809 20H45.7554V16.6C45.7528 15.7627 45.4188 14.9605 44.8265 14.3685C44.2341 13.7764 43.4314 13.4426 42.5937 13.44H29.4063C28.5669 13.44 27.7616 13.7726 27.1671 14.3649C26.5726 14.9573 26.2372 15.761 26.2346 16.6V20H16.4191C15.9547 20 15.5094 20.1844 15.181 20.5126C14.8526 20.8408 14.6682 21.2859 14.6682 21.75C14.6682 22.2141 14.8526 22.6593 15.181 22.9874C15.5094 23.3156 15.9547 23.5 16.4191 23.5H19.0106V54.81C19.0106 55.8046 19.4059 56.7584 20.1095 57.4617C20.8132 58.1649 21.7675 58.56 22.7626 58.56H49.2274C49.7243 58.5666 50.2176 58.4745 50.6786 58.289C51.1396 58.1035 51.5591 57.8284 51.9129 57.4795C52.2666 57.1306 52.5475 56.715 52.7391 56.2567C52.9308 55.7984 53.0295 55.3067 53.0295 54.81V23.47H55.6309C56.0953 23.47 56.5407 23.2856 56.869 22.9574C57.1974 22.6293 57.3819 22.1841 57.3819 21.72C57.3819 21.2559 57.1974 20.8108 56.869 20.4826C56.5407 20.1544 56.0953 19.97 55.6309 19.97L55.5809 20ZM26.4547 47.49V31.25C26.4547 30.7859 26.6392 30.3408 26.9675 30.0126C27.2959 29.6844 27.7413 29.5 28.2057 29.5C28.6701 29.5 29.1154 29.6844 29.4438 30.0126C29.7722 30.3408 29.9566 30.7859 29.9566 31.25V47.49C29.9566 47.9541 29.7722 48.3993 29.4438 48.7274C29.1154 49.0556 28.6701 49.24 28.2057 49.24C27.7413 49.24 27.2959 49.0556 26.9675 48.7274C26.6392 48.3993 26.4547 47.9541 26.4547 47.49V47.49ZM34.249 49.07V29.66C34.249 29.1959 34.4335 28.7508 34.7619 28.4226C35.0902 28.0944 35.5356 27.91 36 27.91C36.4644 27.91 36.9098 28.0944 37.2381 28.4226C37.5665 28.7508 37.751 29.1959 37.751 29.66V49.07C37.751 49.5341 37.5665 49.9793 37.2381 50.3074C36.9098 50.6356 36.4644 50.82 36 50.82C35.5356 50.82 35.0902 50.6356 34.7619 50.3074C34.4335 49.9793 34.249 49.5341 34.249 49.07V49.07ZM45.5453 47.49C45.5453 47.9541 45.3608 48.3993 45.0325 48.7274C44.7041 49.0556 44.2587 49.24 43.7943 49.24C43.3299 49.24 42.8846 49.0556 42.5562 48.7274C42.2278 48.3993 42.0434 47.9541 42.0434 47.49V31.25C42.0434 30.7859 42.2278 30.3408 42.5562 30.0126C42.8846 29.6844 43.3299 29.5 43.7943 29.5C44.2587 29.5 44.7041 29.6844 45.0325 30.0126C45.3608 30.3408 45.5453 30.7859 45.5453 31.25V47.49ZM29.1662 16.6C29.1662 16.5364 29.1915 16.4753 29.2365 16.4303C29.2816 16.3853 29.3427 16.36 29.4063 16.36H42.5937C42.6574 16.36 42.7184 16.3853 42.7635 16.4303C42.8085 16.4753 42.8338 16.5364 42.8338 16.6V20H29.1662V16.6Z"/>
</symbol>
		<symbol id="true-outline" viewBox="0 0 72 72">
<path d="M27.85 52.45C27.414 52.4541 26.9926 52.2933 26.67 52L10.77 37.25C10.6012 37.0937 10.4649 36.9057 10.3688 36.6968C10.2727 36.4878 10.2187 36.262 10.2099 36.0322C10.1921 35.568 10.3594 35.1158 10.675 34.775C10.9906 34.4342 11.4287 34.2327 11.8928 34.2149C12.357 34.1971 12.8092 34.3644 13.15 34.68L27.85 48.3L58.85 19.12C59.1881 18.8017 59.6389 18.6308 60.103 18.6449C60.3329 18.6519 60.5591 18.704 60.7687 18.7984C60.9784 18.8928 61.1674 19.0276 61.325 19.195C61.4826 19.3624 61.6056 19.5593 61.6872 19.7743C61.7687 19.9893 61.8071 20.2182 61.8001 20.448C61.7931 20.6779 61.741 20.9041 61.6466 21.1137C61.5522 21.3234 61.4174 21.5124 61.25 21.67L29.05 52C28.7235 52.2999 28.2932 52.4612 27.85 52.45Z"/>
</symbol>
	</defs>
</svg>
