<svg width="239" height="78" viewBox="0 0 239 78" fill="none" xmlns="http://www.w3.org/2000/svg">
<rect x="0.5" y="0.5" width="238" height="77" rx="8.5" fill="white" stroke="black"/>
<path d="M109.472 24.62V50H107.204L91.904 29.588V50H89.132V24.62H91.4L106.7 45.032V24.62H109.472ZM122.441 32.036C124.673 32.036 126.329 32.612 127.409 33.764C128.513 34.892 129.065 36.62 129.065 38.948V50H126.221V47.012C125.765 48.044 125.069 48.848 124.133 49.424C123.197 49.976 122.117 50.252 120.893 50.252C119.765 50.252 118.721 50.024 117.761 49.568C116.825 49.112 116.081 48.476 115.529 47.66C114.977 46.844 114.701 45.944 114.701 44.96C114.701 43.64 115.037 42.62 115.709 41.9C116.381 41.156 117.485 40.628 119.021 40.316C120.557 39.98 122.693 39.812 125.429 39.812H126.221V38.624C126.221 37.16 125.921 36.104 125.321 35.456C124.721 34.784 123.749 34.448 122.405 34.448C120.389 34.448 118.385 35.072 116.393 36.32L115.421 34.196C116.333 33.548 117.425 33.032 118.697 32.648C119.993 32.24 121.241 32.036 122.441 32.036ZM121.289 47.948C122.729 47.948 123.905 47.468 124.817 46.508C125.753 45.524 126.221 44.264 126.221 42.728V41.684H125.573C123.461 41.684 121.853 41.78 120.749 41.972C119.645 42.14 118.853 42.44 118.373 42.872C117.917 43.28 117.689 43.892 117.689 44.708C117.689 45.644 118.025 46.424 118.697 47.048C119.393 47.648 120.257 47.948 121.289 47.948ZM116.681 28.472C116.681 27.176 116.969 26.168 117.545 25.448C118.145 24.728 118.925 24.368 119.885 24.368C120.389 24.368 120.869 24.476 121.325 24.692C121.781 24.884 122.309 25.172 122.909 25.556C123.461 25.868 123.869 26.096 124.133 26.24C124.421 26.36 124.709 26.42 124.997 26.42C125.525 26.42 125.933 26.24 126.221 25.88C126.509 25.496 126.653 25.028 126.653 24.476H128.273C128.273 25.772 127.973 26.78 127.373 27.5C126.797 28.22 126.029 28.58 125.069 28.58C124.565 28.58 124.085 28.484 123.629 28.292C123.173 28.076 122.645 27.776 122.045 27.392C121.493 27.08 121.073 26.864 120.785 26.744C120.521 26.6 120.245 26.528 119.957 26.528C119.429 26.528 119.021 26.72 118.733 27.104C118.445 27.464 118.301 27.92 118.301 28.472H116.681ZM141.675 50.252C140.019 50.252 138.555 49.88 137.283 49.136C136.035 48.392 135.063 47.336 134.367 45.968C133.695 44.576 133.359 42.968 133.359 41.144C133.359 39.32 133.695 37.724 134.367 36.356C135.063 34.964 136.035 33.896 137.283 33.152C138.555 32.408 140.019 32.036 141.675 32.036C143.331 32.036 144.795 32.408 146.067 33.152C147.339 33.896 148.311 34.964 148.983 36.356C149.679 37.724 150.027 39.32 150.027 41.144C150.027 42.968 149.679 44.576 148.983 45.968C148.311 47.336 147.339 48.392 146.067 49.136C144.795 49.88 143.331 50.252 141.675 50.252ZM141.675 47.84C143.403 47.84 144.723 47.276 145.635 46.148C146.571 44.996 147.039 43.328 147.039 41.144C147.039 39.008 146.571 37.364 145.635 36.212C144.699 35.036 143.379 34.448 141.675 34.448C139.971 34.448 138.651 35.036 137.715 36.212C136.779 37.364 136.311 39.008 136.311 41.144C136.311 43.304 136.767 44.96 137.679 46.112C138.615 47.264 139.947 47.84 141.675 47.84Z" fill="black"/>
</svg>
