<svg width="239" height="78" viewBox="0 0 239 78" fill="none" xmlns="http://www.w3.org/2000/svg">
<rect x="0.5" y="0.5" width="238" height="77" rx="8.5" fill="white" stroke="black"/>
<path d="M98.196 52.288C94.236 52.288 91.068 51.22 88.692 49.084L89.844 46.816C91.092 47.872 92.364 48.628 93.66 49.084C94.98 49.54 96.504 49.768 98.232 49.768C100.272 49.768 101.844 49.372 102.948 48.58C104.052 47.788 104.604 46.672 104.604 45.232C104.604 44.392 104.34 43.708 103.812 43.18C103.284 42.652 102.588 42.232 101.724 41.92C100.86 41.608 99.696 41.284 98.232 40.948C96.264 40.492 94.644 40.012 93.372 39.508C92.124 39.004 91.104 38.284 90.312 37.348C89.544 36.412 89.16 35.188 89.16 33.676C89.16 32.236 89.532 30.964 90.276 29.86C91.044 28.732 92.124 27.868 93.516 27.268C94.932 26.644 96.564 26.332 98.412 26.332C100.164 26.332 101.796 26.608 103.308 27.16C104.844 27.712 106.14 28.504 107.196 29.536L106.08 31.804C104.88 30.772 103.656 30.028 102.408 29.572C101.184 29.092 99.852 28.852 98.412 28.852C96.444 28.852 94.896 29.272 93.768 30.112C92.664 30.928 92.112 32.08 92.112 33.568C92.112 34.84 92.604 35.8 93.588 36.448C94.572 37.096 96.06 37.648 98.052 38.104C100.236 38.632 101.952 39.124 103.2 39.58C104.448 40.012 105.48 40.672 106.296 41.56C107.136 42.448 107.556 43.636 107.556 45.124C107.556 46.564 107.172 47.824 106.404 48.904C105.66 49.984 104.58 50.824 103.164 51.424C101.748 52 100.092 52.288 98.196 52.288ZM111.919 34.468H114.835V52H111.919V34.468ZM115.159 26.872V30.148H111.631V26.872H115.159ZM139.798 34.036C143.686 34.036 145.63 36.352 145.63 40.984V52H142.714V41.128C142.714 39.52 142.426 38.344 141.85 37.6C141.298 36.856 140.398 36.484 139.15 36.484C137.686 36.484 136.534 36.976 135.694 37.96C134.854 38.944 134.434 40.288 134.434 41.992V52H131.518V41.128C131.518 39.496 131.23 38.32 130.654 37.6C130.078 36.856 129.166 36.484 127.918 36.484C126.454 36.484 125.302 36.976 124.462 37.96C123.622 38.944 123.202 40.288 123.202 41.992V52H120.286V34.468H123.166V37.24C123.694 36.208 124.426 35.416 125.362 34.864C126.298 34.312 127.378 34.036 128.602 34.036C131.314 34.036 133.102 35.188 133.966 37.492C134.47 36.412 135.238 35.572 136.27 34.972C137.302 34.348 138.478 34.036 139.798 34.036Z" fill="black"/>
</svg>
