<svg width="41" height="43" viewBox="0 0 41 43" fill="none" xmlns="http://www.w3.org/2000/svg">
<path d="M29.2259 0.886213C26.2416 0.291232 23.2056 -0.00560551 20.1627 8.01464e-05C14.7 8.01464e-05 10.1385 0.960992 7.28569 2.71082C1.51648 6.26657 0.865905 13.7333 0.993029 17.8686C1.12389 22.1459 2.11472 28.1021 6.04436 32.1775C9.1963 35.4491 16.3153 37.2139 21.4264 37.2214C21.8079 37.2184 22.1862 37.2908 22.5396 37.4344C22.8931 37.578 23.2146 37.79 23.486 38.0582C23.7573 38.3264 23.9729 38.6455 24.1206 38.9972C24.2683 39.349 24.3451 39.7264 24.3466 40.1079V42.0634C24.3465 42.1279 24.3651 42.1911 24.4 42.2454C24.4349 42.2997 24.4846 42.3428 24.5434 42.3696C24.6021 42.3964 24.6673 42.4058 24.7312 42.3965C24.795 42.3873 24.8549 42.3599 24.9037 42.3176C26.5525 40.8818 28.3024 39.3264 30.0298 37.7299C30.4523 37.356 30.886 36.941 31.3197 36.5446C33.3911 34.6752 35.5335 32.7047 37.0179 30.596C38.7528 28.1357 39.8782 25.0698 40.3829 21.4841C40.8135 18.1076 40.6872 14.6834 40.009 11.3478C38.9061 5.8179 35.0774 2.10511 29.2259 0.886213Z" fill="#D2DFE6"/>
<path opacity="0.5" d="M40.3467 19.5433C39.9495 22.4241 38.7875 25.1457 36.9817 27.4251C35.4861 29.2534 33.3549 30.9397 31.2835 32.5736C30.8498 32.9176 30.4161 33.2578 29.9936 33.5981C28.2662 34.9852 27.6492 35.419 25.9966 36.664C25.95 36.6985 25.8954 36.7207 25.838 36.7285C25.7805 36.7363 25.722 36.7294 25.6679 36.7085C25.6138 36.6876 25.5659 36.6534 25.5286 36.609C25.4913 36.5646 25.4658 36.5115 25.4545 36.4546L25.2077 34.8731C25.2077 33.4897 23.0167 33.1905 21.4127 33.1868C16.3015 33.1868 9.18252 31.6538 6.03058 28.8272C2.09346 25.2864 1.11011 20.1341 0.979248 16.4363C0.979248 16.369 0.979248 16.3017 0.979248 16.2306C0.979248 16.784 0.979248 17.3074 0.979248 17.7823C1.11011 22.0597 2.10094 28.0158 6.03058 32.0913C9.18252 35.3629 16.3015 37.1277 21.4127 37.1351C21.7941 37.1322 22.1724 37.2046 22.5259 37.3482C22.8793 37.4918 23.2009 37.7037 23.4722 37.9719C23.7435 38.2401 23.9592 38.5592 24.1069 38.911C24.2545 39.2627 24.3313 39.6401 24.3328 40.0216V41.9771C24.3328 42.0416 24.3513 42.1048 24.3862 42.1591C24.4211 42.2134 24.4709 42.2566 24.5296 42.2834C24.5883 42.3102 24.6535 42.3195 24.7174 42.3103C24.7813 42.301 24.8411 42.2736 24.8899 42.2313C26.5388 40.7956 28.2886 39.2402 30.016 37.6436C30.4385 37.2697 30.8722 36.8547 31.3059 36.4584C33.3773 34.5889 35.5197 32.6185 37.0041 30.5097C38.739 28.0495 39.8644 24.9835 40.3692 21.3979C40.5743 19.8551 40.6568 18.2986 40.6159 16.7429C40.5845 17.681 40.4946 18.6164 40.3467 19.5433V19.5433Z" fill="#B9CBD3"/>
<path opacity="0.2" d="M22.353 5.10008C24.8282 5.94508 28.7466 6.05352 31.7677 7.99029C32.8894 8.69322 34.4971 9.08955 34.9383 8.38662C35.3795 7.6837 35.2935 6.57697 33.7755 5.42911C32.0369 4.12047 30.3319 3.10348 24.0953 2.43794C21.4294 2.1463 20.4798 4.46072 22.353 5.10008Z" fill="white"/>
<path opacity="0.2" d="M35.6002 12.3124C36.3374 12.3124 36.935 11.7148 36.935 10.9776C36.935 10.2404 36.3374 9.6428 35.6002 9.6428C34.863 9.6428 34.2654 10.2404 34.2654 10.9776C34.2654 11.7148 34.863 12.3124 35.6002 12.3124Z" fill="white"/>
<path fill-rule="evenodd" clip-rule="evenodd" d="M27.6924 17.1765H27.148H27.6924H27.148H27.6924C27.6845 17.0698 27.6845 16.9627 27.6924 16.856C27.7137 16.6931 27.7532 16.5329 27.8099 16.3782C27.8529 16.2559 27.9089 16.1384 27.9769 16.0275C28.0656 15.8734 28.1934 15.7442 28.3481 15.6525C28.561 15.5355 28.8031 15.479 29.0471 15.4892C29.206 15.4865 29.3644 15.5069 29.5172 15.5497C29.6982 15.602 29.8595 15.705 29.9812 15.846C30.0764 15.9523 30.1537 16.0727 30.21 16.2029C30.2962 16.3956 30.3545 16.5992 30.3832 16.8076C30.392 16.9183 30.392 17.0295 30.3832 17.1402V17.1402C30.3733 17.2521 30.3873 17.3648 30.4243 17.4712C30.4613 17.5775 30.5205 17.6752 30.5981 17.7579C30.6758 17.8407 30.7702 17.9068 30.8754 17.952C30.9805 17.9972 31.0942 18.0206 31.209 18.0206C31.3239 18.0206 31.4376 17.9972 31.5427 17.952C31.6479 17.9068 31.7423 17.8407 31.8199 17.7579C31.8976 17.6752 31.9568 17.5775 31.9938 17.4712C32.0308 17.3648 32.0448 17.2521 32.0349 17.1402C32.032 16.9378 32.0155 16.7358 31.9854 16.5355C31.9437 16.2721 31.8774 16.013 31.7874 15.7614C31.7023 15.529 31.5924 15.306 31.4596 15.0961C31.228 14.7258 30.9074 14.4164 30.5255 14.195C30.0833 13.9528 29.5849 13.8258 29.078 13.8261C28.749 13.8243 28.4215 13.8712 28.1068 13.9652C27.6257 14.1151 27.1971 14.3937 26.8697 14.7696C26.6645 15.0076 26.4977 15.2747 26.3748 15.5618C26.2277 15.8983 26.1258 16.252 26.0717 16.6141C26.0433 16.7983 26.0288 16.9842 26.0284 17.1705C26.0209 17.2824 26.0372 17.3947 26.0763 17.5001C26.1155 17.6056 26.1766 17.7019 26.2558 17.7831C26.335 17.8642 26.4306 17.9284 26.5365 17.9716C26.6424 18.0148 26.7563 18.036 26.871 18.0339C26.9858 18.0318 27.0988 18.0064 27.203 17.9594C27.3071 17.9124 27.4002 17.8447 27.4762 17.7607C27.5523 17.6767 27.6096 17.5782 27.6447 17.4714C27.6798 17.3646 27.6918 17.2518 27.68 17.1402" fill="#738192"/>
<path fill-rule="evenodd" clip-rule="evenodd" d="M11.0453 17.1852H10.5055H11.0453H10.5055H11.0453C11.039 17.0781 11.039 16.9709 11.0453 16.8638C11.0724 16.7016 11.1113 16.5415 11.1618 16.3848C11.207 16.2633 11.2624 16.1456 11.3275 16.0332C11.4247 15.8723 11.5619 15.7387 11.7262 15.6451C11.937 15.5272 12.1773 15.4705 12.4193 15.4814C12.5768 15.4791 12.7339 15.4995 12.8855 15.542C13.0649 15.5945 13.2249 15.6978 13.3455 15.8391C13.4432 15.9626 13.5179 16.1022 13.5663 16.2514C13.6463 16.4466 13.7039 16.65 13.7381 16.8578C13.7381 17.0397 13.7688 17.1791 13.7688 17.1912C13.7647 17.2989 13.7823 17.4064 13.8206 17.5073C13.8589 17.6082 13.9172 17.7005 13.992 17.779C14.0667 17.8574 14.1566 17.9204 14.2562 17.9641C14.3558 18.0079 14.4633 18.0317 14.5723 18.034C14.6829 18.034 14.7924 18.0123 14.8944 17.9701C14.9964 17.9279 15.0889 17.8661 15.1666 17.7882C15.2442 17.7104 15.3054 17.618 15.3466 17.5166C15.3878 17.4151 15.4081 17.3066 15.4065 17.1973V17.1973C15.4038 16.9941 15.3853 16.7914 15.3513 16.591C15.3129 16.3263 15.2472 16.0663 15.155 15.8149C15.0755 15.581 14.9684 15.3572 14.8361 15.1479C14.6042 14.7764 14.2841 14.4663 13.9037 14.2445C13.4564 13.9746 12.9433 13.83 12.4193 13.8262C12.093 13.8239 11.7682 13.8709 11.4563 13.9656C10.9784 14.1144 10.5531 14.394 10.2295 14.772C10.0243 15.0105 9.85678 15.2783 9.73263 15.5663C9.58804 15.9037 9.48905 16.2584 9.4382 16.6213C9.41003 16.8059 9.39568 16.9924 9.39526 17.1791V17.1791C9.39525 17.2868 9.41691 17.3935 9.45898 17.4929C9.50105 17.5922 9.5627 17.6823 9.64033 17.7579C9.71796 17.8335 9.81002 17.8931 9.91116 17.9333C10.0123 17.9734 10.1205 17.9932 10.2295 17.9916C10.3382 17.9884 10.4453 17.9641 10.5446 17.9201C10.6438 17.876 10.7333 17.8131 10.8079 17.7348C10.8826 17.6565 10.9409 17.5645 10.9795 17.4639C11.0181 17.3634 11.0363 17.2563 11.033 17.1488" fill="#738192"/>
<path fill-rule="evenodd" clip-rule="evenodd" d="M24.5777 21.103C24.3871 21.6641 24.0904 22.1833 23.7037 22.6324C23.3687 23.0274 22.9595 23.3529 22.4993 23.5904C21.8996 23.8817 21.2416 24.0331 20.5749 24.0331C19.9082 24.0331 19.2502 23.8817 18.6505 23.5904C18.2954 23.4059 17.9735 23.1635 17.6981 22.8733C17.365 22.5235 17.0872 22.1249 16.8746 21.6912C16.7961 21.5231 16.7401 21.3831 16.7009 21.2878L16.6953 21.159L16.4152 21.2374L16.6953 21.1646L16.4152 21.243L16.6953 21.1702C16.6789 21.0818 16.6443 20.9978 16.5938 20.9234C16.5432 20.8491 16.4778 20.786 16.4016 20.7382C16.3255 20.6905 16.2402 20.659 16.1513 20.6459C16.0623 20.6328 15.9716 20.6382 15.8849 20.662C15.7982 20.6857 15.7173 20.7271 15.6474 20.7837C15.5776 20.8403 15.5202 20.9108 15.4789 20.9906C15.4377 21.0705 15.4135 21.1581 15.4078 21.2478C15.4021 21.3376 15.4151 21.4275 15.446 21.5119C15.6623 22.2153 16.0165 22.8685 16.488 23.4335C16.9254 23.9776 17.4686 24.4273 18.0847 24.7556C18.878 25.1517 19.7526 25.3578 20.6393 25.3578C21.526 25.3578 22.4006 25.1517 23.1939 24.7556C23.6728 24.5014 24.1094 24.1745 24.4881 23.7864C24.9229 23.3381 25.284 22.8238 25.5581 22.2626C25.6808 22.0165 25.7857 21.7619 25.8718 21.5007C25.8954 21.4183 25.9024 21.3321 25.8927 21.247C25.8829 21.1618 25.8564 21.0794 25.8148 21.0045C25.7732 20.9296 25.7172 20.8636 25.6501 20.8104C25.583 20.7571 25.506 20.7175 25.4236 20.694C25.3412 20.6704 25.255 20.6634 25.1699 20.6731C25.0847 20.6829 25.0024 20.7094 24.9275 20.751C24.8525 20.7926 24.7866 20.8486 24.7333 20.9157C24.68 20.9828 24.6405 21.0598 24.6169 21.1422" fill="#738192"/>
<g filter="url(#filter0_f)">
<path fill-rule="evenodd" clip-rule="evenodd" d="M10.3989 24.6502C10.0023 24.6502 9.61449 24.5325 9.28467 24.3122C8.95484 24.0918 8.69778 23.7785 8.54598 23.4121C8.39418 23.0456 8.35446 22.6423 8.43185 22.2533C8.50924 21.8642 8.70025 21.5069 8.98074 21.2264C9.26123 20.9459 9.6186 20.7549 10.0076 20.6775C10.3967 20.6001 10.8 20.6398 11.1664 20.7916C11.5329 20.9434 11.8462 21.2005 12.0665 21.5303C12.2869 21.8601 12.4045 22.2479 12.4045 22.6446C12.4045 23.1765 12.1932 23.6866 11.8171 24.0627C11.441 24.4389 10.9308 24.6502 10.3989 24.6502Z" fill="#8CA0B3"/>
</g>
<g filter="url(#filter1_f)">
<path fill-rule="evenodd" clip-rule="evenodd" d="M31.0378 24.6502C30.6412 24.6502 30.2534 24.5325 29.9236 24.3122C29.5938 24.0918 29.3367 23.7785 29.1849 23.4121C29.0331 23.0456 28.9934 22.6423 29.0708 22.2533C29.1482 21.8642 29.3392 21.5069 29.6197 21.2264C29.9001 20.9459 30.2575 20.7549 30.6466 20.6775C31.0356 20.6001 31.4389 20.6398 31.8054 20.7916C32.1718 20.9434 32.4851 21.2005 32.7054 21.5303C32.9258 21.8601 33.0434 22.2479 33.0434 22.6446C33.0434 23.1765 32.8321 23.6866 32.456 24.0627C32.0799 24.4389 31.5698 24.6502 31.0378 24.6502" fill="#8CA0B3"/>
</g>
<defs>
<filter id="filter0_f" x="4.39331" y="16.6389" width="12.0112" height="12.0112" filterUnits="userSpaceOnUse" color-interpolation-filters="sRGB">
<feFlood flood-opacity="0" result="BackgroundImageFix"/>
<feBlend mode="normal" in="SourceGraphic" in2="BackgroundImageFix" result="shape"/>
<feGaussianBlur stdDeviation="2" result="effect1_foregroundBlur"/>
</filter>
<filter id="filter1_f" x="25.0322" y="16.6389" width="12.0112" height="12.0112" filterUnits="userSpaceOnUse" color-interpolation-filters="sRGB">
<feFlood flood-opacity="0" result="BackgroundImageFix"/>
<feBlend mode="normal" in="SourceGraphic" in2="BackgroundImageFix" result="shape"/>
<feGaussianBlur stdDeviation="2" result="effect1_foregroundBlur"/>
</filter>
</defs>
</svg>
