<svg xmlns="http://www.w3.org/2000/svg" width="16" height="14" viewBox="0 0 16 14">
  <path fill="#8DB8C8" d="M9.37784598 9.22303006C9.19703065 9.8082793 8.65126695 10.2382917 8.00033177 10.2382917 7.34906482 10.2382917 6.80330112 9.8086068 6.62215402 9.22303006L.99232779 9.22303006C.637000788 9.22303006.301248289 9.14148163 0 9L0 12.6899849C0 13.4104932.597188239 14 1.32708497 14L14.672915 14C15.4028118 14 16 13.4104932 16 12.6899849L16 9.0003275C15.6987517 9.14180913 15.3629992 9.22335757 15.008004 9.22335757L9.37784598 9.22303006zM14.6730884 2.16825276L11.6154918 2.16825276C11.4311189.941335702 10.430283 0 9.2246945 0L6.77466863 0C5.56876169 0 4.5688811.941335702 4.38387135 2.16825276L1.32691159 2.16825276C.597062453 2.16825276 0 2.77731252 0 3.5217189L0 6.64585712C0 7.39297044.570314055 7.99932327 1.27373323 7.99932327L6.61704414 7.99932327C6.63519484 7.61054012 6.7925009 7.25965402 7.04119731 7.00689422 7.04883971 6.99945015 7.05775584 6.99302119 7.06571667 6.98557713 7.12080564 6.93177685 7.17812363 6.88102187 7.24085499 6.83703422 7.26314533 6.82113099 7.28861999 6.81030326 7.31186562 6.79609187 7.36345182 6.76462378 7.41440115 6.73180222 7.47012698 6.70743983 7.51375234 6.68815294 7.56088047 6.67698685 7.60673486 6.66243708 7.64622059 6.64991752 7.68379573 6.63333756 7.72487362 6.62454003 7.81403495 6.60525314 7.90606217 6.59510214 8 6.59510214 8.09425626 6.59510214 8.18596505 6.60559151 8.27480794 6.62454003 8.31556741 6.63333756 8.35346097 6.64991752 8.39326514 6.66243708 8.43911953 6.67698685 8.48561079 6.68815294 8.52987302 6.7077782 8.58528042 6.73214059 8.63591132 6.76462378 8.68749751 6.79609187 8.71074314 6.81064163 8.73621781 6.82146936 8.75914501 6.83737258 8.82187637 6.88102187 8.87887593 6.93177685 8.93396489 6.98557713 8.94192573 6.99335956 8.95179716 6.99945015 8.95880269 7.00757095 9.20781754 7.26066912 9.36480516 7.61054012 9.38295586 8L14.7262668 8C15.4296859 8 16 7.39398553 16 6.64653386L16 3.52239564C16 2.77731252 15.4029375 2.16825276 14.6730884 2.16825276zM5.61079489 2.16825276C5.77319588 1.64682993 6.23078454 1.26684431 6.7753055 1.26684431L9.22533137 1.26684431C9.76953389 1.26684431 10.2271226 1.64682993 10.3895235 2.16825276L5.61079489 2.16825276z"/>
</svg>
