<svg width="40" height="43" viewBox="0 0 40 43" fill="none" xmlns="http://www.w3.org/2000/svg">
<path d="M28.585 0.886213C25.6008 0.291232 22.5648 -0.00560551 19.5218 8.01464e-05C14.0592 8.01464e-05 9.49765 0.960992 6.64483 2.71082C0.875614 6.26657 0.225036 13.7333 0.35216 17.8686C0.483024 22.1459 1.47385 28.1021 5.40349 32.1775C8.55543 35.4491 15.6744 37.2139 20.7856 37.2214C21.167 37.2184 21.5453 37.2908 21.8988 37.4344C22.2522 37.578 22.5738 37.79 22.8451 38.0582C23.1164 38.3264 23.3321 38.6455 23.4798 38.9972C23.6274 39.349 23.7042 39.7264 23.7057 40.1079V42.0634C23.7057 42.1279 23.7242 42.1911 23.7591 42.2454C23.794 42.2997 23.8438 42.3428 23.9025 42.3696C23.9612 42.3964 24.0264 42.4058 24.0903 42.3965C24.1542 42.3873 24.214 42.3599 24.2628 42.3176C25.9117 40.8818 27.6615 39.3264 29.3889 37.7299C29.8114 37.356 30.2451 36.941 30.6788 36.5446C32.7502 34.6752 34.8926 32.7047 36.377 30.596C38.1119 28.1357 39.2373 25.0698 39.7421 21.4841C40.1726 18.1076 40.0463 14.6834 39.3682 11.3478C38.2652 5.8179 34.4365 2.10511 28.585 0.886213Z" fill="#2CC3D5"/>
<path opacity="0.25" d="M39.7059 19.5433C39.3086 22.4241 38.1466 25.1457 36.3408 27.4251C34.8452 29.2534 32.714 30.9397 30.6426 32.5736C30.2089 32.9176 29.7752 33.2578 29.3527 33.5981C27.6253 34.9852 27.0084 35.419 25.3557 36.664C25.3091 36.6985 25.2546 36.7207 25.1971 36.7285C25.1397 36.7363 25.0812 36.7294 25.0271 36.7085C24.973 36.6876 24.925 36.6534 24.8877 36.609C24.8504 36.5646 24.8249 36.5115 24.8136 36.4546L24.5668 34.8731C24.5668 33.4897 22.3758 33.1905 20.7718 33.1868C15.6606 33.1868 8.54165 31.6538 5.38971 28.8272C1.45259 25.2864 0.469242 20.1341 0.338379 16.4363C0.338379 16.369 0.338379 16.3017 0.338379 16.2306C0.338379 16.784 0.338379 17.3074 0.338379 17.7823C0.469242 22.0597 1.46007 28.0158 5.38971 32.0913C8.54165 35.3629 15.6606 37.1277 20.7718 37.1351C21.1533 37.1322 21.5316 37.2046 21.885 37.3482C22.2384 37.4918 22.56 37.7037 22.8313 37.9719C23.1026 38.2401 23.3183 38.5592 23.466 38.911C23.6137 39.2627 23.6904 39.6401 23.6919 40.0216V41.9771C23.6919 42.0416 23.7104 42.1048 23.7453 42.1591C23.7802 42.2134 23.83 42.2566 23.8887 42.2834C23.9474 42.3102 24.0126 42.3195 24.0765 42.3103C24.1404 42.301 24.2003 42.2736 24.249 42.2313C25.8979 40.7956 27.6477 39.2402 29.3751 37.6436C29.7976 37.2697 30.2313 36.8547 30.6651 36.4584C32.7364 34.5889 34.8789 32.6185 36.3632 30.5097C38.0981 28.0495 39.2235 24.9835 39.7283 21.3979C39.9334 19.8551 40.0159 18.2986 39.9751 16.7429C39.9437 17.681 39.8538 18.6164 39.7059 19.5433V19.5433Z" fill="#2498A8"/>
<path opacity="0.2" d="M21.7121 5.10008C24.1873 5.94508 28.1057 6.05352 31.1268 7.99029C32.2485 8.69322 33.8562 9.08955 34.2974 8.38662C34.7386 7.6837 34.6526 6.57697 33.1346 5.42911C31.396 4.12047 29.691 3.10348 23.4545 2.43794C20.7886 2.1463 19.8389 4.46072 21.7121 5.10008Z" fill="white"/>
<path opacity="0.2" d="M34.9593 12.3124C35.6965 12.3124 36.2941 11.7148 36.2941 10.9776C36.2941 10.2404 35.6965 9.6428 34.9593 9.6428C34.2221 9.6428 33.6245 10.2404 33.6245 10.9776C33.6245 11.7148 34.2221 12.3124 34.9593 12.3124Z" fill="white"/>
<path d="M12.0794 18.1997C12.9198 18.1997 13.6011 17.5184 13.6011 16.678C13.6011 15.8375 12.9198 15.1562 12.0794 15.1562C11.2389 15.1562 10.5576 15.8375 10.5576 16.678C10.5576 17.5184 11.2389 18.1997 12.0794 18.1997Z" fill="#167582"/>
<path d="M28.1096 18.1997C28.9501 18.1997 29.6314 17.5184 29.6314 16.678C29.6314 15.8375 28.9501 15.1562 28.1096 15.1562C27.2692 15.1562 26.5879 15.8375 26.5879 16.678C26.5879 17.5184 27.2692 18.1997 28.1096 18.1997Z" fill="#167582"/>
<path d="M24.9381 23.2439H15.5263C15.3777 23.2439 15.2352 23.3029 15.1302 23.4079C15.0251 23.513 14.9661 23.6555 14.9661 23.8041C14.9661 23.9527 15.0251 24.0952 15.1302 24.2002C15.2352 24.3053 15.3777 24.3643 15.5263 24.3643H24.9381C25.0867 24.3643 25.2292 24.3053 25.3343 24.2002C25.4393 24.0952 25.4983 23.9527 25.4983 23.8041C25.4983 23.6555 25.4393 23.513 25.3343 23.4079C25.2292 23.3029 25.0867 23.2439 24.9381 23.2439Z" fill="#167582"/>
</svg>
