<svg width="40" height="43" viewBox="0 0 40 43" fill="none" xmlns="http://www.w3.org/2000/svg">
<path d="M28.2647 0.886213C25.2805 0.291232 22.2445 -0.00560551 19.2015 8.01464e-05C13.7389 8.01464e-05 9.17734 0.960992 6.32451 2.71082C0.555302 6.26657 -0.0952768 13.7333 0.0318477 17.8686C0.162711 22.1459 1.15353 28.1021 5.08318 32.1775C8.23512 35.4491 15.3541 37.2139 20.4652 37.2214C20.8467 37.2184 21.225 37.2908 21.5784 37.4344C21.9319 37.578 22.2535 37.79 22.5248 38.0582C22.7961 38.3264 23.0118 38.6455 23.1595 38.9972C23.3071 39.349 23.3839 39.7264 23.3854 40.1079V42.0634C23.3853 42.1279 23.4039 42.1911 23.4388 42.2454C23.4737 42.2997 23.5234 42.3428 23.5822 42.3696C23.6409 42.3964 23.7061 42.4058 23.77 42.3965C23.8339 42.3873 23.8937 42.3599 23.9425 42.3176C25.5914 40.8818 27.3412 39.3264 29.0686 37.7299C29.4911 37.356 29.9248 36.941 30.3585 36.5446C32.4299 34.6752 34.5723 32.7047 36.0567 30.596C37.7916 28.1357 38.917 25.0698 39.4218 21.4841C39.8523 18.1076 39.726 14.6834 39.0479 11.3478C37.9449 5.8179 34.1162 2.10511 28.2647 0.886213Z" fill="#2CC3D5"/>
<path opacity="0.25" d="M39.3856 19.5433C38.9883 22.4241 37.8263 25.1457 36.0205 27.4251C34.5249 29.2534 32.3937 30.9397 30.3223 32.5736C29.8886 32.9176 29.4549 33.2578 29.0324 33.5981C27.305 34.9852 26.688 35.419 25.0354 36.664C24.9888 36.6985 24.9343 36.7207 24.8768 36.7285C24.8193 36.7363 24.7608 36.7294 24.7067 36.7085C24.6527 36.6876 24.6047 36.6534 24.5674 36.609C24.5301 36.5646 24.5046 36.5115 24.4933 36.4546L24.2465 34.8731C24.2465 33.4897 22.0555 33.1905 20.4515 33.1868C15.3403 33.1868 8.22134 31.6538 5.0694 28.8272C1.13228 25.2864 0.14893 20.1341 0.0180664 16.4363C0.0180664 16.369 0.0180664 16.3017 0.0180664 16.2306C0.0180664 16.784 0.0180664 17.3074 0.0180664 17.7823C0.14893 22.0597 1.13975 28.0158 5.0694 32.0913C8.22134 35.3629 15.3403 37.1277 20.4515 37.1351C20.8329 37.1322 21.2112 37.2046 21.5647 37.3482C21.9181 37.4918 22.2397 37.7037 22.511 37.9719C22.7823 38.2401 22.998 38.5592 23.1457 38.911C23.2934 39.2627 23.3701 39.6401 23.3716 40.0216V41.9771C23.3716 42.0416 23.3901 42.1048 23.425 42.1591C23.4599 42.2134 23.5097 42.2566 23.5684 42.2834C23.6271 42.3102 23.6923 42.3195 23.7562 42.3103C23.8201 42.301 23.88 42.2736 23.9287 42.2313C25.5776 40.7956 27.3274 39.2402 29.0548 37.6436C29.4773 37.2697 29.911 36.8547 30.3448 36.4584C32.4161 34.5889 34.5586 32.6185 36.0429 30.5097C37.7778 28.0495 38.9032 24.9835 39.408 21.3979C39.6131 19.8551 39.6956 18.2986 39.6548 16.7429C39.6234 17.681 39.5334 18.6164 39.3856 19.5433V19.5433Z" fill="#2498A8"/>
<path opacity="0.2" d="M21.3918 5.10008C23.867 5.94508 27.7854 6.05352 30.8065 7.99029C31.9282 8.69322 33.5359 9.08955 33.9771 8.38662C34.4183 7.6837 34.3323 6.57697 32.8143 5.42911C31.0757 4.12047 29.3707 3.10348 23.1341 2.43794C20.4683 2.1463 19.5186 4.46072 21.3918 5.10008Z" fill="white"/>
<path opacity="0.2" d="M34.639 12.3124C35.3762 12.3124 35.9738 11.7148 35.9738 10.9776C35.9738 10.2404 35.3762 9.6428 34.639 9.6428C33.9018 9.6428 33.3042 10.2404 33.3042 10.9776C33.3042 11.7148 33.9018 12.3124 34.639 12.3124Z" fill="white"/>
<path d="M11.7591 18.1997C12.5995 18.1997 13.2808 17.5184 13.2808 16.678C13.2808 15.8375 12.5995 15.1562 11.7591 15.1562C10.9186 15.1562 10.2373 15.8375 10.2373 16.678C10.2373 17.5184 10.9186 18.1997 11.7591 18.1997Z" fill="#167582"/>
<path d="M27.7893 18.1997C28.6298 18.1997 29.3111 17.5184 29.3111 16.678C29.3111 15.8375 28.6298 15.1562 27.7893 15.1562C26.9489 15.1562 26.2676 15.8375 26.2676 16.678C26.2676 17.5184 26.9489 18.1997 27.7893 18.1997Z" fill="#167582"/>
<path d="M19.8906 22.4423C22.2156 22.4423 24.2044 23.2491 24.8374 24.4536C24.9024 24.5788 24.9178 24.724 24.8804 24.86C24.843 24.9961 24.7556 25.113 24.6358 25.1875C24.5707 25.2227 24.4993 25.2448 24.4257 25.2523C24.3521 25.2599 24.2778 25.2527 24.2069 25.2314C24.1361 25.21 24.0702 25.1749 24.013 25.1279C23.9559 25.0809 23.9086 25.0231 23.8739 24.9578C23.5153 24.2687 22.0027 23.5404 19.9186 23.5404C17.8346 23.5404 16.2268 24.2967 15.9298 25.0306C15.8734 25.1688 15.7643 25.2789 15.6267 25.3366C15.4891 25.3944 15.3341 25.3952 15.1959 25.3387C15.0578 25.2823 14.9477 25.1732 14.8899 25.0356C14.8321 24.8979 14.8313 24.743 14.8878 24.6048C15.4088 23.3387 17.4873 22.4423 19.8906 22.4423Z" fill="#167582"/>
</svg>
