<svg width="41" height="43" viewBox="0 0 41 43" fill="none" xmlns="http://www.w3.org/2000/svg">
<path d="M28.9056 0.886213C25.9213 0.291232 22.8853 -0.00560551 19.8424 8.01464e-05C14.3797 8.01464e-05 9.81821 0.960992 6.96538 2.71082C1.19617 6.26657 0.545592 13.7333 0.672717 17.8686C0.80358 22.1459 1.7944 28.1021 5.72405 32.1775C8.87599 35.4491 15.995 37.2139 21.1061 37.2214C21.4876 37.2184 21.8659 37.2908 22.2193 37.4344C22.5727 37.578 22.8943 37.79 23.1656 38.0582C23.437 38.3264 23.6526 38.6455 23.8003 38.9972C23.948 39.349 24.0248 39.7264 24.0262 40.1079V42.0634C24.0262 42.1279 24.0448 42.1911 24.0797 42.2454C24.1145 42.2997 24.1643 42.3428 24.223 42.3696C24.2818 42.3964 24.347 42.4058 24.4108 42.3965C24.4747 42.3873 24.5346 42.3599 24.5833 42.3176C26.2322 40.8818 27.9821 39.3264 29.7095 37.7299C30.132 37.356 30.5657 36.941 30.9994 36.5446C33.0708 34.6752 35.2132 32.7047 36.6976 30.596C38.4324 28.1357 39.5579 25.0698 40.0626 21.4841C40.4932 18.1076 40.3669 14.6834 39.6887 11.3478C38.5857 5.8179 34.7571 2.10511 28.9056 0.886213Z" fill="#2CC3D5"/>
<path opacity="0.25" d="M40.0264 19.5433C39.6292 22.4241 38.4672 25.1457 36.6614 27.4251C35.1658 29.2534 33.0346 30.9397 30.9632 32.5736C30.5295 32.9176 30.0957 33.2578 29.6732 33.5981C27.9458 34.9852 27.3289 35.419 25.6763 36.664C25.6297 36.6985 25.5751 36.7207 25.5177 36.7285C25.4602 36.7363 25.4017 36.7294 25.3476 36.7085C25.2935 36.6876 25.2456 36.6534 25.2083 36.609C25.1709 36.5646 25.1455 36.5115 25.1342 36.4546L24.8874 34.8731C24.8874 33.4897 22.6964 33.1905 21.0923 33.1868C15.9812 33.1868 8.86221 31.6538 5.71027 28.8272C1.77315 25.2864 0.789799 20.1341 0.658936 16.4363C0.658936 16.369 0.658936 16.3017 0.658936 16.2306C0.658936 16.784 0.658936 17.3074 0.658936 17.7823C0.789799 22.0597 1.78062 28.0158 5.71027 32.0913C8.86221 35.3629 15.9812 37.1277 21.0923 37.1351C21.4738 37.1322 21.8521 37.2046 22.2055 37.3482C22.559 37.4918 22.8806 37.7037 23.1519 37.9719C23.4232 38.2401 23.6389 38.5592 23.7865 38.911C23.9342 39.2627 24.011 39.6401 24.0125 40.0216V41.9771C24.0124 42.0416 24.031 42.1048 24.0659 42.1591C24.1008 42.2134 24.1505 42.2566 24.2093 42.2834C24.268 42.3102 24.3332 42.3195 24.3971 42.3103C24.4609 42.301 24.5208 42.2736 24.5696 42.2313C26.2184 40.7956 27.9683 39.2402 29.6957 37.6436C30.1182 37.2697 30.5519 36.8547 30.9856 36.4584C33.057 34.5889 35.1994 32.6185 36.6838 30.5097C38.4187 28.0495 39.5441 24.9835 40.0489 21.3979C40.2539 19.8551 40.3365 18.2986 40.2956 16.7429C40.2642 17.681 40.1743 18.6164 40.0264 19.5433V19.5433Z" fill="#2498A8"/>
<path opacity="0.2" d="M22.0327 5.10008C24.5079 5.94508 28.4263 6.05352 31.4474 7.99029C32.569 8.69322 34.1768 9.08955 34.618 8.38662C35.0592 7.6837 34.9732 6.57697 33.4552 5.42911C31.7166 4.12047 30.0116 3.10348 23.775 2.43794C21.1091 2.1463 20.1594 4.46072 22.0327 5.10008Z" fill="white"/>
<path opacity="0.2" d="M35.2799 12.3124C36.0171 12.3124 36.6147 11.7148 36.6147 10.9776C36.6147 10.2404 36.0171 9.6428 35.2799 9.6428C34.5427 9.6428 33.9451 10.2404 33.9451 10.9776C33.9451 11.7148 34.5427 12.3124 35.2799 12.3124Z" fill="white"/>
<path d="M12.3999 18.1997C13.2404 18.1997 13.9217 17.5184 13.9217 16.678C13.9217 15.8375 13.2404 15.1562 12.3999 15.1562C11.5595 15.1562 10.8782 15.8375 10.8782 16.678C10.8782 17.5184 11.5595 18.1997 12.3999 18.1997Z" fill="#167582"/>
<path d="M28.4302 18.1997C29.2706 18.1997 29.952 17.5184 29.952 16.678C29.952 15.8375 29.2706 15.1562 28.4302 15.1562C27.5898 15.1562 26.9084 15.8375 26.9084 16.678C26.9084 17.5184 27.5898 18.1997 28.4302 18.1997Z" fill="#167582"/>
<path d="M20.4966 25.3805C18.1716 25.3805 16.1828 24.5738 15.5498 23.3693C15.4848 23.2441 15.4695 23.0989 15.5068 22.9629C15.5442 22.8268 15.6316 22.7099 15.7514 22.6354C15.8165 22.6001 15.8879 22.5781 15.9615 22.5705C16.0351 22.563 16.1094 22.5701 16.1803 22.5915C16.2511 22.6128 16.317 22.648 16.3742 22.695C16.4314 22.7419 16.4787 22.7998 16.5134 22.8651C16.8719 23.5542 18.3845 24.2825 20.4686 24.2825C22.5526 24.2825 24.1604 23.5262 24.4574 22.7923C24.5138 22.6541 24.6229 22.544 24.7605 22.4862C24.8981 22.4284 25.0531 22.4277 25.1913 22.4842C25.3294 22.5406 25.4395 22.6497 25.4973 22.7873C25.5551 22.9249 25.5559 23.0799 25.4994 23.2181C24.9784 24.4842 22.8999 25.3805 20.4966 25.3805Z" fill="#167582"/>
</svg>
